<svg xmlns="http://www.w3.org/2000/svg" width="12" height="12" viewBox="0 0 12 12" fill="none">
<path opacity="0.53" d="M1.03838 8.62896e-07C1.67121 8.07572e-07 2.11425 0.300219 2.55728 0.539812C2.93688 0.719748 3.31699 0.959826 3.76003 1.13976C5.78541 2.15973 7.81079 3.23984 9.83566 4.31994C10.4685 4.62016 11.2911 4.91989 11.7342 5.46019C11.8605 5.64013 12.0508 5.8802 11.9874 6.18042C11.7976 6.84051 10.9115 7.08059 10.3421 7.38032C8.94958 8.10056 7.49412 8.88045 6.10157 9.60019C5.5951 9.90041 4.8359 10.4402 4.20307 10.0202C3.94983 9.90041 3.82347 9.78013 3.76003 9.60019C3.69659 9.36012 3.76003 9.06038 3.76003 8.82031L3.76003 6.90017C3.76003 6.36036 3.69659 5.94034 4.0767 5.70027C4.20306 5.64013 4.4563 5.58047 4.6461 5.64013C5.27894 5.8802 5.08914 6.96031 5.08914 7.80034L5.08914 8.45995C6.16501 7.92014 7.24088 7.37984 8.31675 6.90017C8.69635 6.72023 9.32918 6.5403 9.45606 6.06014C9.58242 5.52033 8.38019 5.10031 8.00059 4.91989L3.63367 2.57974C3.31699 2.39981 2.49436 1.79986 1.9884 1.97979C1.7986 2.03993 1.67172 2.21987 1.67172 2.33967C1.60829 2.57974 1.60829 2.93962 1.60829 3.23984L1.60829 5.15997L1.60829 8.39981C1.60829 8.87996 1.54485 9.47991 1.73465 9.77965C2.17769 10.3796 3.19012 9.29949 3.50679 10.2598C3.57023 10.4999 3.44336 10.74 3.31699 10.8598C3.06376 11.2201 1.92445 11.7599 1.48141 11.8802C1.35505 11.9399 1.03838 12 0.848579 12C-0.227292 11.8201 0.0259438 10.2001 0.0259437 8.99976L0.0259432 3.0599C0.0259431 2.15973 -0.100419 0.959826 0.279179 0.420014C0.468979 0.119797 0.658778 0.119797 1.03838 8.62896e-07ZM4.32943 3.89993C5.27894 3.89993 5.34186 5.04017 4.45579 5.22011C3.94932 5.28025 3.56972 4.8001 3.69608 4.38008C3.82295 4.07986 4.01275 4.01972 4.32943 3.89993Z" fill="#2B2B2B"/>
</svg>