<svg width="40" height="40" viewBox="0 0 40 40" fill="none" xmlns="http://www.w3.org/2000/svg">
<path d="M40 20C40 8.9543 31.0457 0 20 0C8.9543 0 0 8.9543 0 20C0 31.0457 8.9543 40 20 40C31.0457 40 40 31.0457 40 20Z" fill="#F1F1F1"/>
<path d="M22.9883 20.748C23.8737 21.054 24.6712 21.4837 25.3809 22.0371C26.097 22.584 26.7025 23.2188 27.1973 23.9414C27.6986 24.6641 28.0827 25.4551 28.3496 26.3145C28.6165 27.1738 28.75 28.069 28.75 29H27.5C27.5 27.9323 27.3079 26.9427 26.9238 26.0312C26.5462 25.1133 26.0221 24.319 25.3516 23.6484C24.681 22.9779 23.8867 22.4538 22.9688 22.0762C22.0573 21.6921 21.0677 21.5 20 21.5C19.3034 21.5 18.6328 21.5879 17.9883 21.7637C17.3438 21.9395 16.7415 22.1901 16.1816 22.5156C15.6283 22.8346 15.1237 23.222 14.668 23.6777C14.2188 24.127 13.8314 24.6315 13.5059 25.1914C13.1868 25.7448 12.9395 26.3438 12.7637 26.9883C12.5879 27.6328 12.5 28.3034 12.5 29H11.25C11.25 28.0625 11.3867 27.1673 11.6602 26.3145C11.9336 25.4551 12.321 24.6673 12.8223 23.9512C13.3236 23.235 13.929 22.6035 14.6387 22.0566C15.3548 21.5098 16.1523 21.0768 17.0312 20.7578C16.5234 20.4844 16.0677 20.1523 15.6641 19.7617C15.2604 19.3711 14.9154 18.9382 14.6289 18.4629C14.349 17.9811 14.1309 17.4701 13.9746 16.9297C13.8249 16.3828 13.75 15.8229 13.75 15.25C13.75 14.3841 13.9128 13.5736 14.2383 12.8184C14.5638 12.0566 15.0098 11.3926 15.5762 10.8262C16.1426 10.2598 16.8034 9.8138 17.5586 9.48828C18.3203 9.16276 19.1341 9 20 9C20.8659 9 21.6764 9.16276 22.4316 9.48828C23.1934 9.8138 23.8574 10.2598 24.4238 10.8262C24.9902 11.3926 25.4362 12.0566 25.7617 12.8184C26.0872 13.5736 26.25 14.3841 26.25 15.25C26.25 15.8229 26.1719 16.3796 26.0156 16.9199C25.8659 17.4603 25.6478 17.9681 25.3613 18.4434C25.0814 18.9186 24.7396 19.3548 24.3359 19.752C23.9388 20.1426 23.4896 20.4746 22.9883 20.748ZM15 15.25C15 15.9401 15.1302 16.5879 15.3906 17.1934C15.6576 17.7988 16.0156 18.3294 16.4648 18.7852C16.9206 19.2344 17.4512 19.5924 18.0566 19.8594C18.6621 20.1198 19.3099 20.25 20 20.25C20.6901 20.25 21.3379 20.1198 21.9434 19.8594C22.5488 19.5924 23.0762 19.2344 23.5254 18.7852C23.9811 18.3294 24.3392 17.7988 24.5996 17.1934C24.8665 16.5879 25 15.9401 25 15.25C25 14.5599 24.8665 13.9121 24.5996 13.3066C24.3392 12.7012 23.9811 12.1738 23.5254 11.7246C23.0762 11.2689 22.5488 10.9108 21.9434 10.6504C21.3379 10.3835 20.6901 10.25 20 10.25C19.3099 10.25 18.6621 10.3835 18.0566 10.6504C17.4512 10.9108 16.9206 11.2689 16.4648 11.7246C16.0156 12.1738 15.6576 12.7012 15.3906 13.3066C15.1302 13.9121 15 14.5599 15 15.25Z" fill="black" fill-opacity="0.55"/>
</svg>
