<svg width="11" height="3" viewBox="0 0 11 3" fill="#000" xmlns="http://www.w3.org/2000/svg">
    <path d="M2.5 1.25C2.5 1.94036 1.94036 2.5 1.25 2.5C0.559644 2.5 0 1.94036 0 1.25C0 0.559644 0.559644 0 1.25 0C1.94036 0 2.5 0.559644 2.5 1.25Z" fill-opacity="0.83"/>
    <path d="M6.5 1.25C6.5 1.94036 5.94036 2.5 5.25 2.5C4.55964 2.5 4 1.94036 4 1.25C4 0.559644 4.55964 0 5.25 0C5.94036 0 6.5 0.559644 6.5 1.25Z" fill-opacity="0.83"/>
    <path d="M9.25 2.5C9.94036 2.5 10.5 1.94036 10.5 1.25C10.5 0.559644 9.94036 0 9.25 0C8.55964 0 8 0.559644 8 1.25C8 1.94036 8.55964 2.5 9.25 2.5Z" fill-opacity="0.83"/>
</svg>