<svg class="expand-svg" viewBox="0 0 17 17" width="24" height="27" xmlns="http://www.w3.org/2000/svg"><path d="M2 7a.942.942 0 0 1 .703.297A.941.941 0 0 1 3 8a.97.97 0 0 1-.078.39 1.03 1.03 0 0 1-.531.532A.97.97 0 0 1 2 9a.97.97 0 0 1-.39-.078 1.103 1.103 0 0 1-.32-.211 1.103 1.103 0 0 1-.212-.32A.969.969 0 0 1 1 8a.969.969 0 0 1 .29-.703A.97.97 0 0 1 2 7Zm6 0a.941.941 0 0 1 .703.297A.941.941 0 0 1 9 8a.97.97 0 0 1-.078.39 1.03 1.03 0 0 1-.531.532A.97.97 0 0 1 8 9a.97.97 0 0 1-.39-.078 1.103 1.103 0 0 1-.32-.211 1.103 1.103 0 0 1-.212-.32A.97.97 0 0 1 7 8a.97.97 0 0 1 .29-.703A.97.97 0 0 1 8 7Zm6 0a.94.94 0 0 1 .703.297A.941.941 0 0 1 15 8a.97.97 0 0 1-.297.71A.97.97 0 0 1 14 9a.97.97 0 0 1-.39-.078 1.102 1.102 0 0 1-.32-.211 1.103 1.103 0 0 1-.212-.32A.97.97 0 0 1 13 8a.97.97 0 0 1 .29-.703A.97.97 0 0 1 14 7Z"/></svg>