<?xml version="1.0" encoding="utf-8"?>
<!-- Generator: Adobe Illustrator 26.0.1, SVG Export Plug-In . SVG Version: 6.00 Build 0)  -->
<svg version="1.1" id="Layer_1" xmlns="http://www.w3.org/2000/svg" xmlns:xlink="http://www.w3.org/1999/xlink" x="0px" y="0px"
	 viewBox="0 0 890.7 75.7" style="enable-background:new 0 0 890.7 75.7;" xml:space="preserve">
<style type="text/css">
	.st0{display:none;}
	.st1{display:inline;fill:#000104;}
	.st2{clip-path:url(#SVGID_00000147907964604822990390000004790437872541200260_);fill:#231F20;}
</style>
<g class="st0">
	<path class="st1" d="M44.5,78.7c-2.2,2.2-5.2,3.5-8.3,3.4H11.9v-9.9h24.4c1.3,0,2-0.6,2-1.9V59.7c-0.1,2-1.7,2.9-4.9,2.9H13.7
		C7.4,62.8,2.1,57.7,2,51.3c0-0.1,0-0.3,0-0.4V28.4c-0.1-3.1,1.1-6.1,3.4-8.3c2.2-2.2,5.2-3.5,8.4-3.4h19.6c3.2,0,4.8,1,4.9,2.9
		v-2.9H48v53.7C48.1,73.5,46.8,76.5,44.5,78.7z M38.2,28.4c0-1.3-0.7-1.9-2-1.9H13.7c-0.9-0.1-1.8,0.5-1.9,1.4c0,0.1,0,0.3,0,0.5
		v22.5c0,1.3,0.6,2,1.9,2h22.5c1,0.1,1.9-0.5,2-1.5c0-0.2,0-0.3,0-0.5L38.2,28.4z"/>
	<path class="st1" d="M64.3,62.6c-6.4,0.1-11.6-5-11.7-11.3c0-0.1,0-0.3,0-0.4v-3.5c0-3.3,1.8-5.6,5.5-6.8l30.8-9.8v-1.3
		c0-1.9-0.7-2.9-2-2.9H64.3c-0.9-0.1-1.8,0.5-1.9,1.4c0,0.2,0,0.3,0,0.5v4.9h-9.8v-4.9C52.5,22,57.6,16.7,64,16.7c0.1,0,0.1,0,0.2,0
		h22.5c3.1-0.1,6.1,1.2,8.3,3.4c2.2,2.2,3.5,5.2,3.4,8.3v34.2H64.3z M88.8,40.6l-22.4,6.7c-2.7,0.7-4,2-4,3.7
		c-0.1,0.9,0.5,1.8,1.4,1.9c0.2,0,0.3,0,0.5,0h22.5c1,0.1,1.9-0.6,2-1.5c0-0.2,0-0.3,0-0.5L88.8,40.6z"/>
	<path class="st1" d="M205,16.7c6.4-0.1,11.6,5,11.7,11.3c0,0.1,0,0.3,0,0.4v3.5c0,3.3-1.9,5.6-5.5,6.8l-30.8,9.8v1.3
		c0,1.9,0.7,2.9,2,2.9h22.5c0.9,0.1,1.8-0.5,1.9-1.4c0-0.2,0-0.3,0-0.5V46h9.9v4.9c0.1,6.4-5.1,11.7-11.5,11.7c-0.1,0-0.2,0-0.2,0
		h-22.5c-6.5,0-11.7-5.2-11.8-11.7c0,0,0,0,0-0.1V16.7L205,16.7z M180.5,38.7l22.4-6.7c2.7-0.7,4-2,4-3.7c0.1-0.9-0.5-1.8-1.4-1.9
		c-0.1,0-0.3,0-0.5,0h-22.5c-1-0.1-1.9,0.6-2,1.5c0,0.2,0,0.3,0,0.5L180.5,38.7z"/>
	<path class="st1" d="M156.2,62.6V28.4c0.1-0.9-0.5-1.8-1.4-1.9c-0.2,0-0.3,0-0.5,0h-12.8c-0.9-0.1-1.8,0.5-1.9,1.4
		c0,0.2,0,0.3,0,0.5v34.2h-9.8V28.4c0.1-0.9-0.5-1.8-1.4-1.9c-0.2,0-0.3,0-0.5,0h-12.8c-0.9-0.1-1.8,0.5-1.9,1.4c0,0.2,0,0.3,0,0.5
		v34.2h-9.9v-46h50.9c3.1,0,6.1,1.3,8.2,3.5c2.3,2.1,3.6,5.1,3.5,8.2v34.2H156.2z"/>
	<path class="st1" d="M496.4,16.7c6.4-0.1,11.6,5,11.7,11.4c0,0.1,0,0.2,0,0.4v3.5c0,3.3-1.9,5.6-5.5,6.8l-30.8,9.8v1.3
		c0,1.9,0.7,2.9,2,2.9h22.5c0.9,0.1,1.8-0.5,1.9-1.4c0-0.2,0-0.3,0-0.5V46h9.9v4.9c0,6.4-5.1,11.7-11.6,11.7c-0.1,0-0.1,0-0.2,0
		h-22.5c-6.5,0-11.7-5.2-11.7-11.7c0,0,0,0,0-0.1V16.7L496.4,16.7z M471.9,38.7l22.4-6.7c2.7-0.7,4-2,4-3.7c0.1-0.9-0.5-1.8-1.4-1.9
		c-0.1,0-0.3,0-0.5,0h-22.5c-1-0.1-1.9,0.6-2,1.5c0,0.2,0,0.3,0,0.5L471.9,38.7z"/>
	<path class="st1" d="M230.9,25.5c-0.5,0.5-1.1,0.7-1.8,0.7h-4.8c-0.7,0-1.3-0.3-1.8-0.7c-0.5-0.5-0.7-1.1-0.7-1.8V19
		c0-1.4,1.1-2.5,2.4-2.5c0,0,0.1,0,0.1,0h4.8c1.4,0,2.5,1.1,2.5,2.5c0,0,0,0,0,0v4.8C231.6,24.4,231.4,25.1,230.9,25.5L230.9,25.5z"
		/>
	<path class="st1" d="M221.7,62.6V31.2h9.9v31.4H221.7z"/>
	<path class="st1" d="M273.5,62.6V28.4c0-1.3-0.7-1.9-2-1.9H249c-0.9-0.1-1.8,0.5-1.9,1.4c0,0.2,0,0.3,0,0.5v34.2h-9.9v-46h34.2
		c6.5,0,11.7,5.2,11.7,11.6c0,0,0,0.1,0,0.1v34.3H273.5z"/>
	<path class="st1" d="M305,8.4c-1.3,0-2,0.6-2,1.9v6.4h9.9v9.9H303v36.1h-9.7V26.5h-7.9v-9.9h7.9v-6.4c-0.1-3.1,1.2-6.1,3.4-8.3
		c2.2-2.2,5.2-3.5,8.3-3.4h12.6v9.8L305,8.4z"/>
	<path class="st1" d="M524.4,26.5c-1.3,0-2,0.6-2,1.9v34.3h-9.8V28.4c-0.1-6.4,5.1-11.7,11.5-11.7c0.1,0,0.2,0,0.2,0H537v9.9
		L524.4,26.5z"/>
	<path class="st1" d="M377.5,26.5c-1.3,0-2,0.6-2,1.9v34.3h-9.7V28.4c-0.1-3.1,1.2-6.1,3.4-8.3c2.2-2.2,5.2-3.5,8.4-3.4h12.7v9.9
		L377.5,26.5z"/>
	<path class="st1" d="M357.7,59.3c-2.2,2.2-5.2,3.4-8.3,3.4h-22.5c-6.4,0.1-11.6-5-11.7-11.3c0-0.1,0-0.3,0-0.4V28.4
		c-0.1-6.4,5.1-11.7,11.5-11.7c0.1,0,0.1,0,0.2,0h22.5c6.5,0,11.7,5.2,11.7,11.6c0,0,0,0.1,0,0.1v22.5
		C361.2,54,359.9,57.1,357.7,59.3z M351.4,28.4c0-1.3-0.7-1.9-2-1.9h-22.5c-0.9-0.1-1.8,0.5-1.9,1.4c0,0.2,0,0.3,0,0.5v22.5
		c0,1.3,0.6,2,1.9,2h22.5c1,0.1,1.9-0.6,2-1.5c0-0.2,0-0.3,0-0.5L351.4,28.4z"/>
	<path class="st1" d="M447.6,62.6V28.4c0.1-0.9-0.5-1.8-1.4-1.9c-0.1,0-0.3,0-0.5,0H433c-0.9-0.1-1.8,0.5-1.9,1.4c0,0.2,0,0.3,0,0.5
		v34.2h-9.8V28.4c0.1-0.9-0.5-1.8-1.4-1.9c-0.2,0-0.3,0-0.5,0h-12.8c-0.9-0.1-1.7,0.5-1.9,1.4c0,0.2,0,0.3,0,0.5v34.2h-9.9v-46h50.9
		c3.1,0,6.1,1.3,8.2,3.5c2.3,2.1,3.6,5.1,3.5,8.2v34.3L447.6,62.6z"/>
</g>
<g>
	<path d="M132.4,74.1l-3.5-9.8h-27.8l-3.5,9.8H73.8l28.7-72.5h25.2l28.7,72.5H132.4z M115.1,25.1l-7.4,20.7h14.6L115.1,25.1z"/>
	<path d="M247.6,74.1h-21.9V39.9L209,74.1h-10.7l-16.8-34.2v34.2h-21.9V1.6H184l19.6,39.7l19.7-39.7h24.3V74.1z"/>
	<path d="M314.8,74.1h-58.4V1.6h57.9v18.5h-35.5v9.4h29.6v16.7h-29.6v9.4h36V74.1z"/>
	<path d="M426.1,74.1h-18.3l-31.6-34.9v34.9h-22.4V1.6h18.4L403.8,38V1.6h22.3V74.1z"/>
	<path d="M457.3,32.3h29.2v19.1h-29.2v22.6H435V1.6h58.8v19.1h-36.5V32.3z"/>
	<path d="M572.9,37.9c0,21.2-17.3,37.9-39.3,37.9c-22.1,0-39.3-16.7-39.3-37.9S511.5,0,533.6,0C555.6,0,572.9,16.7,572.9,37.9z
		 M550.4,37.9c0-10.2-6.9-17.8-16.8-17.8c-9.8,0-16.9,7.7-16.9,17.8s7,17.8,16.9,17.8C543.5,55.7,550.4,48,550.4,37.9z"/>
	<path d="M619.3,74.1l-18.8-22.3v22.3h-22.4V1.6h39.6c15.7,0,26.2,10,26.2,24.8c0,11.5-6.4,20.1-16.8,23.7l20.6,24H619.3z
		 M600.5,34.5h12.3c5.6,0,9.1-2.9,9.1-7.6c0-4.2-3.5-7.1-9.1-7.1h-12.3V34.5z"/>
	<path d="M854.8,74.1l-18.8-22.3v22.3h-22.4V1.6h39.6c15.7,0,26.2,10,26.2,24.8c0,11.5-6.4,20.1-16.8,23.7l20.6,24H854.8z
		 M835.9,34.5h12.3c5.6,0,9.1-2.9,9.1-7.6c0-4.2-3.5-7.1-9.1-7.1h-12.3V34.5z"/>
	<path d="M738.6,74.1h-21.9V39.9L700,74.1h-10.7l-16.8-34.2v34.2h-21.9V1.6H675l19.6,39.7l19.7-39.7h24.3V74.1z"/>
	<path d="M805.8,74.1h-58.4V1.6h57.9v18.5h-35.5v9.4h29.6v16.7h-29.6v9.4h36V74.1z"/>
	<path d="M78,30.6c0.3,2.9,0.5,5.1,0.5,7.2c0,22.5-16.1,37.9-38.8,37.9C17.4,75.7,0,59.1,0,37.9S17.3,0,39.7,0
		C53.5,0,65,5.1,71.6,13.9L53,25.9c-3.5-4.5-7.8-5.9-13.3-5.9c-10.2,0-17.2,7.7-17.2,17.8s7.1,17.8,17.3,17.8
		c6.8,0,11.6-2.6,14.4-7.1H37.5v-18H78z"/>
	<polygon points="322.6,1.6 322.6,74.1 345,74.1 345,30.6 329.9,30.6 328.2,30.6 328.2,30.6 326.4,30.6 345,18.7 345,1.6 	"/>
</g>
<g>
	<defs>
		<rect id="SVGID_1_" x="885.3" y="69" width="5.5" height="5.5"/>
	</defs>
	<clipPath id="SVGID_00000172433638717162231630000008222854592513621177_">
		<use xlink:href="#SVGID_1_"  style="overflow:visible;"/>
	</clipPath>
	<path style="clip-path:url(#SVGID_00000172433638717162231630000008222854592513621177_);fill:#231F20;" d="M886.9,70.2v3h0.5V72
		h0.4c0.3,0,0.5,0,0.6,0.1c0.2,0.1,0.3,0.3,0.3,0.7V73l0,0.1c0,0,0,0,0,0c0,0,0,0,0,0h0.5l0,0c0,0,0-0.1,0-0.2c0-0.1,0-0.2,0-0.2
		v-0.2c0-0.2-0.1-0.3-0.2-0.5c-0.1-0.2-0.3-0.3-0.5-0.3c0.2,0,0.3-0.1,0.4-0.1c0.2-0.1,0.3-0.3,0.3-0.6c0-0.4-0.2-0.6-0.5-0.8
		c-0.2-0.1-0.4-0.1-0.8-0.1H886.9z M888.7,71.1c0,0.2-0.1,0.4-0.3,0.5c-0.1,0-0.3,0.1-0.5,0.1h-0.5v-1.1h0.5c0.3,0,0.5,0,0.6,0.1
		C888.6,70.7,888.7,70.9,888.7,71.1 M890.7,71.7c0-0.8-0.3-1.4-0.8-1.9c-0.5-0.5-1.2-0.8-1.9-0.8c-0.8,0-1.4,0.3-1.9,0.8
		c-0.5,0.5-0.8,1.2-0.8,1.9c0,0.8,0.3,1.4,0.8,1.9c0.5,0.5,1.2,0.8,1.9,0.8c0.8,0,1.4-0.3,1.9-0.8C890.4,73.1,890.7,72.4,890.7,71.7
		 M888,69.3c0.6,0,1.2,0.2,1.7,0.7c0.5,0.5,0.7,1,0.7,1.7c0,0.7-0.2,1.2-0.7,1.7c-0.5,0.5-1,0.7-1.7,0.7c-0.7,0-1.2-0.2-1.7-0.7
		c-0.5-0.5-0.7-1-0.7-1.7c0-0.6,0.2-1.2,0.7-1.7C886.8,69.6,887.3,69.3,888,69.3"/>
</g>
</svg>
