<svg xmlns="http://www.w3.org/2000/svg" xmlns:xlink="http://www.w3.org/1999/xlink" width="24" height="20" viewBox="0 0 24 20">
  <defs>
    <style>
      .cls-1 {
        fill: #2c2c2c;
      }

      .cls-2 {
        fill: none;
      }

      .cls-3 {
        clip-path: url(#clip-path);
      }

      .cls-4 {
        clip-path: url(#clip-path-2);
      }

      .cls-5 {
        fill: #fff;
      }
    </style>
    <clipPath id="clip-path">
      <rect id="사각형_418" data-name="사각형 418" class="cls-1" width="24" height="20"/>
    </clipPath>
    <clipPath id="clip-path-2">
      <rect id="사각형_402" data-name="사각형 402" class="cls-2" width="24" height="20"/>
    </clipPath>
  </defs>
  <g id="그룹_657" data-name="그룹 657" transform="translate(-331 -415)">
    <g id="그룹_655" data-name="그룹 655" class="cls-3" transform="translate(331 415)">
      <path id="패스_191" data-name="패스 191" class="cls-1" d="M22.244,1.741a6.032,6.032,0,0,0-8.479,0L11.991,3.5,10.235,1.758a6.032,6.032,0,0,0-8.479,0,5.909,5.909,0,0,0,0,8.406L12,20l10.244-9.853a5.909,5.909,0,0,0,0-8.406"/>
    </g>
    <g id="그룹_627" data-name="그룹 627" class="cls-4" transform="translate(331 415)">
      <path id="패스_180" data-name="패스 180" class="cls-5" d="M18,1a4.985,4.985,0,0,1,3.535,1.451,4.906,4.906,0,0,1,.011,6.975L12,18.613,2.46,9.454a4.907,4.907,0,0,1,0-6.985,5.03,5.03,0,0,1,7.071,0L11.287,4.21l.7.7.7-.7,1.774-1.759A4.985,4.985,0,0,1,18,1m0-1a6,6,0,0,0-4.24,1.741L11.991,3.5l-1.756-1.74a6.03,6.03,0,0,0-8.479,0,5.907,5.907,0,0,0,0,8.406L12,20l10.244-9.853a5.909,5.909,0,0,0,0-8.406A6,6,0,0,0,18,0"/>
    </g>
  </g>
</svg>
