<svg width="24" height="24" viewBox="0 0 24 24" fill="none" xmlns="http://www.w3.org/2000/svg">
<path fill-rule="evenodd" clip-rule="evenodd" d="M12 1.25C6.063 1.25 1.25 6.063 1.25 12C1.25 17.937 6.063 22.75 12 22.75C17.937 22.75 22.75 17.937 22.75 12C22.75 6.063 17.937 1.25 12 1.25ZM11.25 2.78C9.06299 2.95781 7.0104 3.90728 5.45884 5.45884C3.90728 7.0104 2.95781 9.06299 2.78 11.25H5C5.19891 11.25 5.38968 11.329 5.53033 11.4697C5.67098 11.6103 5.75 11.8011 5.75 12C5.75 12.1989 5.67098 12.3897 5.53033 12.5303C5.38968 12.671 5.19891 12.75 5 12.75H2.78C2.95781 14.937 3.90728 16.9896 5.45884 18.5412C7.0104 20.0927 9.06299 21.0422 11.25 21.22V19C11.25 18.8011 11.329 18.6103 11.4697 18.4697C11.6103 18.329 11.8011 18.25 12 18.25C12.1989 18.25 12.3897 18.329 12.5303 18.4697C12.671 18.6103 12.75 18.8011 12.75 19V21.22C14.937 21.0422 16.9896 20.0927 18.5412 18.5412C20.0927 16.9896 21.0422 14.937 21.22 12.75H19C18.8011 12.75 18.6103 12.671 18.4697 12.5303C18.329 12.3897 18.25 12.1989 18.25 12C18.25 11.8011 18.329 11.6103 18.4697 11.4697C18.6103 11.329 18.8011 11.25 19 11.25H21.22C21.0422 9.06299 20.0927 7.0104 18.5412 5.45884C16.9896 3.90728 14.937 2.95781 12.75 2.78V5C12.75 5.19891 12.671 5.38968 12.5303 5.53033C12.3897 5.67098 12.1989 5.75 12 5.75C11.8011 5.75 11.6103 5.67098 11.4697 5.53033C11.329 5.38968 11.25 5.19891 11.25 5V2.78Z" fill="#121212"/>
<circle cx="12" cy="12" r="2" fill="#121212"/>
</svg>
