<svg width="24" height="24" viewBox="0 0 24 24" fill="none" xmlns="http://www.w3.org/2000/svg">
<path d="M13.3645 10.4209C14.4036 9.67636 15.0909 8.46545 15.0909 7.09091C15.0909 4.83273 13.2582 3 11 3C8.74182 3 6.90909 4.83273 6.90909 7.09091C6.90909 8.46545 7.59636 9.67636 8.63546 10.4209C4.91273 10.8791 2 14.2664 2 18.3409V21H20V18.3409C20 14.2664 17.0873 10.8791 13.3645 10.4209ZM7.72727 7.09091C7.72727 5.28273 9.19182 3.81818 11 3.81818C12.8082 3.81818 14.2727 5.28273 14.2727 7.09091C14.2727 8.89909 12.8082 10.3636 11 10.3636C9.19182 10.3636 7.72727 8.89909 7.72727 7.09091ZM19.1818 20.1818H2.81818V18.3409C2.81818 14.3973 5.81273 11.1818 9.50273 11.1818H12.5055C16.1873 11.1818 19.19 14.3973 19.19 18.3409V20.1818H19.1818Z" fill="white"/>
<path d="M19.9062 4.4375V7.01776H22.5625V7.33026H19.9062V10.0625H19.5938V7.33026H16.9375V7.01776H19.5938V4.4375H19.9062Z" fill="white" stroke="white" stroke-width="0.5"/>
</svg>
