<svg width="24" height="24" viewBox="0 0 24 24" fill="none" xmlns="http://www.w3.org/2000/svg">
<path d="M11.98 20V19H18.385C18.5383 19 18.6793 18.936 18.808 18.808C18.9367 18.68 19.0007 18.5387 19 18.384V5.616C19 5.462 18.936 5.32067 18.808 5.192C18.68 5.06333 18.5387 4.99933 18.384 5H11.981V4H18.385C18.845 4 19.229 4.15433 19.537 4.463C19.845 4.77167 19.9993 5.156 20 5.616V18.385C20 18.845 19.8457 19.2293 19.537 19.538C19.2283 19.8467 18.8443 20.0007 18.385 20H11.98ZM11.27 15.539L10.567 14.819L12.887 12.5H4V11.5H12.887L10.567 9.18L11.269 8.462L14.808 12L11.27 15.539Z" fill="white"/>
</svg>
