<svg width="26" height="28" viewBox="0 0 26 28" fill="none" xmlns="http://www.w3.org/2000/svg"><path fill-rule="evenodd" clip-rule="evenodd" d="M1.87598 6.76029L12.7594 0.870499L13.0547 4.4932L1.87598 6.76029Z" fill="#535072"/><path fill-rule="evenodd" clip-rule="evenodd" d="M24.3353 6.63457L12.7473 0.799835L13.0547 4.49319L24.3353 6.63457Z" fill="#7A7397"/><path fill-rule="evenodd" clip-rule="evenodd" d="M13.6697 26.0566L20.5411 17.4415L24.3352 19.1748L13.6697 26.0566Z" fill="#272643"/><path fill-rule="evenodd" clip-rule="evenodd" d="M13.6697 26.0566L6.79856 17.7467L1.87097 19.2204L13.6697 26.0566Z" fill="#27283E"/><path fill-rule="evenodd" clip-rule="evenodd" d="M24.3353 6.63457V19.1748L20.5411 17.4415L24.3353 6.63457Z" fill="#2D2D45"/><path fill-rule="evenodd" clip-rule="evenodd" d="M1.87589 7.09276L1.87097 19.2204L6.79856 17.7467L1.87589 7.09276Z" fill="#202134"/><path fill-rule="evenodd" clip-rule="evenodd" d="M24.3353 6.63457L20.5411 17.4415L12.9802 4.49319L24.3353 6.63457Z" fill="#42416C"/><path fill-rule="evenodd" clip-rule="evenodd" d="M1.87598 6.61683L6.7811 17.7467L13.0547 4.49319L1.87598 6.61683Z" fill="#363257"/><path fill-rule="evenodd" clip-rule="evenodd" d="M13.6697 26.0566L20.5411 17.4415L6.78101 17.7467L13.6697 26.0566Z" fill="#484979"/><path fill-rule="evenodd" clip-rule="evenodd" d="M13.0547 4.49319L6.79858 17.7467L20.5411 17.4415L13.0547 4.49319Z" fill="#363356"/><path fill-rule="evenodd" clip-rule="evenodd" d="M20.5067 17.8884L20.5965 18.045L20.6857 17.7908L23.7593 19.2779L14.8213 25.0172L20.5067 17.8884ZM6.64138 18.0575L6.77306 18.356L6.84598 18.2013L12.5784 25.1334L2.50234 19.2953L6.64138 18.0575ZM6.43617 17.5923L2.12422 18.8824L2.12853 8.24251L6.19311 17.0402L6.43617 17.5923ZM12.7049 4.30294L3.47703 6.05556L12.5381 1.2724L12.7744 4.17386L12.6132 4.14297L12.7049 4.30294ZM13.4267 4.29774L13.4947 4.15398L13.3368 4.18395L13.1233 1.29534L22.6031 6.04761L13.4267 4.29774ZM20.8559 17.3084L24.0821 8.11986V18.7818L20.8559 17.3084ZM20.0083 17.7042L13.666 25.6562L7.3244 17.9872L20.0083 17.7042ZM11.6164 5.02203L12.6138 4.8327L6.79275 17.1319L6.65369 16.8313L2.23498 6.80463L11.6164 5.02203ZM23.9993 6.82665L20.4848 16.8365L13.598 4.84371L18.6115 5.79894L23.9993 6.82665ZM13.0768 5.03702L20.1089 17.1989L7.20103 17.4864L13.0768 5.03702ZM24.5885 19.344L24.7882 19.2158L24.5885 19.1192V6.72541L24.626 6.73244L24.5885 6.71379V6.67708L24.6709 6.44218L24.418 6.39385L12.9965 0.668617L12.9802 0.468274L12.7938 0.566763L12.5526 0.445946L12.5701 0.684828L1.79071 6.37641L1.51689 6.42841L1.63442 6.69543L1.60703 6.71012L1.63842 6.704L1.74579 6.94777L1.62272 6.97469L1.6178 19.0338L1.2403 19.1467L1.6178 19.3657V19.5596L1.83901 19.4935L13.6488 26.3358L13.6743 26.3058L13.7017 26.3358L24.3854 19.4746L24.5885 19.5673V19.344Z" fill="white"/><path fill-rule="evenodd" clip-rule="evenodd" d="M24.6423 6.63457C24.6423 6.8028 24.5048 6.93983 24.3353 6.93983C24.1657 6.93983 24.0282 6.8028 24.0282 6.63457C24.0282 6.46543 24.1657 6.3284 24.3353 6.3284C24.5048 6.3284 24.6423 6.46543 24.6423 6.63457Z" fill="white"/><path fill-rule="evenodd" clip-rule="evenodd" d="M24.3353 6.47491C24.2473 6.47491 24.1759 6.54648 24.1759 6.63457C24.1759 6.72174 24.2473 6.7927 24.3353 6.7927C24.4233 6.7927 24.4947 6.72174 24.4947 6.63457C24.4947 6.54648 24.4233 6.47491 24.3353 6.47491ZM24.3353 7.08664C24.0845 7.08664 23.8802 6.88385 23.8802 6.63457C23.8802 6.38437 24.0845 6.18127 24.3353 6.18127C24.586 6.18127 24.7903 6.38437 24.7903 6.63457C24.7903 6.88385 24.586 7.08664 24.3353 7.08664Z" fill="white"/><path fill-rule="evenodd" clip-rule="evenodd" d="M24.3352 6.52079C24.2725 6.52079 24.2211 6.57187 24.2211 6.63457C24.2211 6.69697 24.2725 6.74744 24.3352 6.74744C24.3983 6.74744 24.4494 6.69697 24.4494 6.63457C24.4494 6.57187 24.3983 6.52079 24.3352 6.52079ZM24.3352 7.35795C23.9337 7.35795 23.6067 7.03343 23.6067 6.63457C23.6067 6.2345 23.9337 5.90997 24.3352 5.90997C24.7367 5.90997 25.0638 6.2345 25.0638 6.63457C25.0638 7.03343 24.7367 7.35795 24.3352 7.35795Z" fill="white"/><path fill-rule="evenodd" clip-rule="evenodd" d="M24.3352 6.89456C24.1909 6.89456 24.0734 6.77802 24.0734 6.63457C24.0734 6.49051 24.1909 6.37366 24.3352 6.37366C24.4795 6.37366 24.5973 6.49051 24.5973 6.63457C24.5973 6.77802 24.4795 6.89456 24.3352 6.89456ZM24.3352 6.05709C24.0152 6.05709 23.7547 6.31616 23.7547 6.63457C23.7547 6.95237 24.0152 7.21113 24.3352 7.21113C24.6555 7.21113 24.9158 6.95237 24.9158 6.63457C24.9158 6.31616 24.6555 6.05709 24.3352 6.05709ZM24.3352 7.50507C23.8519 7.50507 23.459 7.11448 23.459 6.63457C23.459 6.15405 23.8519 5.76315 24.3352 5.76315C24.8183 5.76315 25.2115 6.15405 25.2115 6.63457C25.2115 7.11448 24.8183 7.50507 24.3352 7.50507Z" fill="white"/><path fill-rule="evenodd" clip-rule="evenodd" d="M20.8476 17.4415C20.8476 17.6103 20.7103 17.7467 20.5411 17.7467C20.371 17.7467 20.2338 17.6103 20.2338 17.4415C20.2338 17.273 20.371 17.1359 20.5411 17.1359C20.7103 17.1359 20.8476 17.273 20.8476 17.4415Z" fill="white"/><path fill-rule="evenodd" clip-rule="evenodd" d="M20.5411 17.2827C20.4531 17.2827 20.3814 17.354 20.3814 17.4415C20.3814 17.5287 20.4531 17.5996 20.5411 17.5996C20.6285 17.5996 20.6999 17.5287 20.6999 17.4415C20.6999 17.354 20.6285 17.2827 20.5411 17.2827ZM20.5411 17.8936C20.29 17.8936 20.0861 17.6905 20.0861 17.4415C20.0861 17.1919 20.29 16.9891 20.5411 16.9891C20.7915 16.9891 20.9955 17.1919 20.9955 17.4415C20.9955 17.6905 20.7915 17.8936 20.5411 17.8936Z" fill="white"/><path fill-rule="evenodd" clip-rule="evenodd" d="M20.5411 17.3277C20.4777 17.3277 20.4266 17.3788 20.4266 17.4415C20.4266 17.5039 20.4777 17.555 20.5411 17.555C20.6038 17.555 20.6549 17.5039 20.6549 17.4415C20.6549 17.3788 20.6038 17.3277 20.5411 17.3277ZM20.5411 18.1658C20.1392 18.1658 19.8125 17.8403 19.8125 17.4415C19.8125 17.0414 20.1392 16.7169 20.5411 16.7169C20.9426 16.7169 21.269 17.0414 21.269 17.4415C21.269 17.8403 20.9426 18.1658 20.5411 18.1658Z" fill="white"/><path fill-rule="evenodd" clip-rule="evenodd" d="M20.5412 17.7018C20.3962 17.7018 20.2787 17.5849 20.2787 17.4415C20.2787 17.2974 20.3962 17.1806 20.5412 17.1806C20.6851 17.1806 20.8027 17.2974 20.8027 17.4415C20.8027 17.5849 20.6851 17.7018 20.5412 17.7018ZM20.5412 16.864C20.2209 16.864 19.9606 17.1231 19.9606 17.4415C19.9606 17.7596 20.2209 18.0187 20.5412 18.0187C20.8611 18.0187 21.1214 17.7596 21.1214 17.4415C21.1214 17.1231 20.8611 16.864 20.5412 16.864ZM20.5412 18.3126C20.0578 18.3126 19.6649 17.9217 19.6649 17.4415C19.6649 16.961 20.0578 16.5701 20.5412 16.5701C21.0239 16.5701 21.4168 16.961 21.4168 17.4415C21.4168 17.9217 21.0239 18.3126 20.5412 18.3126Z" fill="white"/><path fill-rule="evenodd" clip-rule="evenodd" d="M24.6423 19.1748C24.6423 19.3428 24.5048 19.4801 24.3353 19.4801C24.1657 19.4801 24.0282 19.3428 24.0282 19.1748C24.0282 19.0057 24.1657 18.8696 24.3353 18.8696C24.5048 18.8696 24.6423 19.0057 24.6423 19.1748Z" fill="white"/><path fill-rule="evenodd" clip-rule="evenodd" d="M24.3353 19.0161C24.2473 19.0161 24.1759 19.0871 24.1759 19.1745C24.1759 19.262 24.2473 19.333 24.3353 19.333C24.4233 19.333 24.4947 19.262 24.4947 19.1745C24.4947 19.0871 24.4233 19.0161 24.3353 19.0161ZM24.3353 19.6269C24.0845 19.6269 23.8802 19.4238 23.8802 19.1745C23.8802 18.9253 24.0845 18.7222 24.3353 18.7222C24.586 18.7222 24.7903 18.9253 24.7903 19.1745C24.7903 19.4238 24.586 19.6269 24.3353 19.6269Z" fill="white"/><path fill-rule="evenodd" clip-rule="evenodd" d="M24.3352 19.0608C24.2725 19.0608 24.2211 19.1118 24.2211 19.1748C24.2211 19.2372 24.2725 19.2886 24.3352 19.2886C24.3983 19.2886 24.4494 19.2372 24.4494 19.1748C24.4494 19.1118 24.3983 19.0608 24.3352 19.0608ZM24.3352 19.8982C23.9337 19.8982 23.6067 19.5737 23.6067 19.1748C23.6067 18.7757 23.9337 18.4509 24.3352 18.4509C24.7367 18.4509 25.0638 18.7757 25.0638 19.1748C25.0638 19.5737 24.7367 19.8982 24.3352 19.8982Z" fill="white"/><path fill-rule="evenodd" clip-rule="evenodd" d="M24.3352 19.4354C24.1909 19.4354 24.0734 19.3183 24.0734 19.1745C24.0734 19.0308 24.1909 18.9139 24.3352 18.9139C24.4795 18.9139 24.5973 19.0308 24.5973 19.1745C24.5973 19.3183 24.4795 19.4354 24.3352 19.4354ZM24.3352 18.5977C24.0152 18.5977 23.7547 18.8564 23.7547 19.1745C23.7547 19.4926 24.0152 19.7511 24.3352 19.7511C24.6555 19.7511 24.9158 19.4926 24.9158 19.1745C24.9158 18.8564 24.6555 18.5977 24.3352 18.5977ZM24.3352 20.045C23.8519 20.045 23.459 19.6547 23.459 19.1745C23.459 18.6943 23.8519 18.3037 24.3352 18.3037C24.8183 18.3037 25.2115 18.6943 25.2115 19.1745C25.2115 19.6547 24.8183 20.045 24.3352 20.045Z" fill="white"/><path fill-rule="evenodd" clip-rule="evenodd" d="M13.9767 25.8473C13.9767 26.0156 13.8392 26.1526 13.6697 26.1526C13.4998 26.1526 13.3623 26.0156 13.3623 25.8473C13.3623 25.6791 13.4998 25.5421 13.6697 25.5421C13.8392 25.5421 13.9767 25.6791 13.9767 25.8473Z" fill="white"/><path fill-rule="evenodd" clip-rule="evenodd" d="M13.6697 25.6889C13.582 25.6889 13.5103 25.7602 13.5103 25.8473C13.5103 25.9348 13.582 26.0061 13.6697 26.0061C13.7574 26.0061 13.8291 25.9348 13.8291 25.8473C13.8291 25.7602 13.7574 25.6889 13.6697 25.6889ZM13.6697 26.3C13.4186 26.3 13.2147 26.0966 13.2147 25.8473C13.2147 25.5984 13.4186 25.3953 13.6697 25.3953C13.9204 25.3953 14.1244 25.5984 14.1244 25.8473C14.1244 26.0966 13.9204 26.3 13.6697 26.3Z" fill="white"/><path fill-rule="evenodd" clip-rule="evenodd" d="M13.6697 25.7336C13.6066 25.7336 13.5553 25.784 13.5553 25.8473C13.5553 25.9097 13.6066 25.9602 13.6697 25.9602C13.7328 25.9602 13.7842 25.9097 13.7842 25.8473C13.7842 25.784 13.7328 25.7336 13.6697 25.7336ZM13.6697 26.571C13.2682 26.571 12.9412 26.2465 12.9412 25.8473C12.9412 25.4473 13.2682 25.1231 13.6697 25.1231C14.0715 25.1231 14.3977 25.4473 14.3977 25.8473C14.3977 26.2465 14.0715 26.571 13.6697 26.571Z" fill="white"/><path fill-rule="evenodd" clip-rule="evenodd" d="M13.6697 26.1073C13.5251 26.1073 13.4073 25.9908 13.4073 25.8473C13.4073 25.7033 13.5251 25.5867 13.6697 25.5867C13.8144 25.5867 13.9319 25.7033 13.9319 25.8473C13.9319 25.9908 13.8144 26.1073 13.6697 26.1073ZM13.6697 25.2699C13.3498 25.2699 13.0892 25.5289 13.0892 25.8473C13.0892 26.1651 13.3498 26.4242 13.6697 26.4242C13.9897 26.4242 14.25 26.1651 14.25 25.8473C14.25 25.5289 13.9897 25.2699 13.6697 25.2699ZM13.6697 26.7178C13.1867 26.7178 12.7938 26.3272 12.7938 25.8473C12.7938 25.3668 13.1867 24.9759 13.6697 24.9759C14.1528 24.9759 14.5457 25.3668 14.5457 25.8473C14.5457 26.3272 14.1528 26.7178 13.6697 26.7178Z" fill="white"/><path fill-rule="evenodd" clip-rule="evenodd" d="M7.10537 17.7468C7.10537 17.9156 6.96784 18.052 6.79863 18.052C6.6288 18.052 6.49158 17.9156 6.49158 17.7468C6.49158 17.5782 6.6288 17.4421 6.79863 17.4421C6.96784 17.4421 7.10537 17.5782 7.10537 17.7468Z" fill="white"/><path fill-rule="evenodd" clip-rule="evenodd" d="M6.7986 17.5892C6.71092 17.5892 6.63923 17.6596 6.63923 17.7467C6.63923 17.8339 6.71092 17.9052 6.7986 17.9052C6.88629 17.9052 6.95767 17.8339 6.95767 17.7467C6.95767 17.6596 6.88629 17.5892 6.7986 17.5892ZM6.7986 18.1988C6.54786 18.1988 6.34387 17.996 6.34387 17.7467C6.34387 17.4978 6.54786 17.2953 6.7986 17.2953C7.04935 17.2953 7.25303 17.4978 7.25303 17.7467C7.25303 17.996 7.04935 18.1988 6.7986 18.1988Z" fill="white"/><path fill-rule="evenodd" clip-rule="evenodd" d="M6.79856 17.6336C6.73549 17.6336 6.68411 17.685 6.68411 17.7467C6.68411 17.8101 6.73549 17.8605 6.79856 17.8605C6.86163 17.8605 6.9127 17.8101 6.9127 17.7467C6.9127 17.685 6.86163 17.6336 6.79856 17.6336ZM6.79856 18.471C6.39705 18.471 6.07031 18.1465 6.07031 17.7467C6.07031 17.3476 6.39705 17.0231 6.79856 17.0231C7.20006 17.0231 7.5265 17.3476 7.5265 17.7467C7.5265 18.1465 7.20006 18.471 6.79856 18.471Z" fill="white"/><path fill-rule="evenodd" clip-rule="evenodd" d="M6.79853 18.0077C6.65393 18.0077 6.53609 17.8905 6.53609 17.7468C6.53609 17.603 6.65393 17.4868 6.79853 17.4868C6.94314 17.4868 7.06067 17.603 7.06067 17.7468C7.06067 17.8905 6.94314 18.0077 6.79853 18.0077ZM6.79853 17.1699C6.47856 17.1699 6.21797 17.4286 6.21797 17.7468C6.21797 18.0649 6.47856 18.3239 6.79853 18.3239C7.11851 18.3239 7.37849 18.0649 7.37849 17.7468C7.37849 17.4286 7.11851 17.1699 6.79853 17.1699ZM6.79853 18.6179C6.3155 18.6179 5.92261 18.227 5.92261 17.7468C5.92261 17.2665 6.3155 16.8759 6.79853 16.8759C7.28126 16.8759 7.67415 17.2665 7.67415 17.7468C7.67415 18.227 7.28126 18.6179 6.79853 18.6179Z" fill="white"/><path fill-rule="evenodd" clip-rule="evenodd" d="M2.18326 6.61683C2.18326 6.78506 2.04542 6.92117 1.8759 6.92117C1.70637 6.92117 1.56885 6.78506 1.56885 6.61683C1.56885 6.44769 1.70637 6.31066 1.8759 6.31066C2.04542 6.31066 2.18326 6.44769 2.18326 6.61683Z" fill="white"/><path fill-rule="evenodd" clip-rule="evenodd" d="M1.87624 6.45747C1.78794 6.45747 1.71687 6.52905 1.71687 6.61683C1.71687 6.704 1.78794 6.77435 1.87624 6.77435C1.96393 6.77435 2.03531 6.704 2.03531 6.61683C2.03531 6.52905 1.96393 6.45747 1.87624 6.45747ZM1.87624 7.06829C1.62519 7.06829 1.4212 6.86581 1.4212 6.61683C1.4212 6.36694 1.62519 6.16384 1.87624 6.16384C2.12699 6.16384 2.33097 6.36694 2.33097 6.61683C2.33097 6.86581 2.12699 7.06829 1.87624 7.06829Z" fill="white"/><path fill-rule="evenodd" clip-rule="evenodd" d="M1.87595 6.50213C1.81288 6.50213 1.7615 6.55351 1.7615 6.61683C1.7615 6.67923 1.81288 6.73 1.87595 6.73C1.93902 6.73 1.9904 6.67923 1.9904 6.61683C1.9904 6.55351 1.93902 6.50213 1.87595 6.50213ZM1.87595 7.34051C1.47445 7.34051 1.14771 7.01507 1.14771 6.61683C1.14771 6.21675 1.47445 5.89223 1.87595 5.89223C2.27746 5.89223 2.6042 6.21675 2.6042 6.61683C2.6042 7.01507 2.27746 7.34051 1.87595 7.34051Z" fill="white"/><path fill-rule="evenodd" clip-rule="evenodd" d="M1.87623 6.87682C1.73132 6.87682 1.61379 6.75998 1.61379 6.61683C1.61379 6.47246 1.73132 6.35531 1.87623 6.35531C2.02053 6.35531 2.13806 6.47246 2.13806 6.61683C2.13806 6.75998 2.02053 6.87682 1.87623 6.87682ZM1.87623 6.03935C1.55595 6.03935 1.29567 6.29842 1.29567 6.61683C1.29567 6.93493 1.55595 7.19339 1.87623 7.19339C2.19621 7.19339 2.45649 6.93493 2.45649 6.61683C2.45649 6.29842 2.19621 6.03935 1.87623 6.03935ZM1.87623 7.48733C1.39289 7.48733 1 7.09674 1 6.61683C1 6.13631 1.39289 5.74541 1.87623 5.74541C2.35896 5.74541 2.75216 6.13631 2.75216 6.61683C2.75216 7.09674 2.35896 7.48733 1.87623 7.48733Z" fill="white"/><path fill-rule="evenodd" clip-rule="evenodd" d="M13.3614 4.49319C13.3614 4.66142 13.2236 4.79783 13.0547 4.79783C12.8845 4.79783 12.7473 4.66142 12.7473 4.49319C12.7473 4.32405 12.8845 4.18793 13.0547 4.18793C13.2236 4.18793 13.3614 4.32405 13.3614 4.49319Z" fill="white"/><path fill-rule="evenodd" clip-rule="evenodd" d="M13.0547 4.33505C12.9667 4.33505 12.895 4.40571 12.895 4.49319C12.895 4.58005 12.9667 4.65102 13.0547 4.65102C13.1423 4.65102 13.2134 4.58005 13.2134 4.49319C13.2134 4.40571 13.1423 4.33505 13.0547 4.33505ZM13.0547 4.94495C12.8036 4.94495 12.5993 4.74216 12.5993 4.49319C12.5993 4.24421 12.8036 4.04111 13.0547 4.04111C13.3051 4.04111 13.5091 4.24421 13.5091 4.49319C13.5091 4.74216 13.3051 4.94495 13.0547 4.94495Z" fill="white"/><path fill-rule="evenodd" clip-rule="evenodd" d="M13.0547 4.37941C12.9913 4.37941 12.9402 4.4308 12.9402 4.49319C12.9402 4.55559 12.9913 4.60636 13.0547 4.60636C13.1174 4.60636 13.1685 4.55559 13.1685 4.49319C13.1685 4.4308 13.1174 4.37941 13.0547 4.37941ZM13.0547 5.21779C12.6525 5.21779 12.3261 4.89235 12.3261 4.49319C12.3261 4.09342 12.6525 3.7689 13.0547 3.7689C13.4559 3.7689 13.7826 4.09342 13.7826 4.49319C13.7826 4.89235 13.4559 5.21779 13.0547 5.21779Z" fill="white"/><path fill-rule="evenodd" clip-rule="evenodd" d="M13.0547 4.75318C12.9101 4.75318 12.7923 4.63664 12.7923 4.49319C12.7923 4.34943 12.9101 4.23259 13.0547 4.23259C13.199 4.23259 13.3165 4.34943 13.3165 4.49319C13.3165 4.63664 13.199 4.75318 13.0547 4.75318ZM13.0547 3.91571C12.7347 3.91571 12.4741 4.17509 12.4741 4.49319C12.4741 4.8116 12.7347 5.07067 13.0547 5.07067C13.3747 5.07067 13.6347 4.8116 13.6347 4.49319C13.6347 4.17509 13.3747 3.91571 13.0547 3.91571ZM13.0547 5.36461C12.5714 5.36461 12.1785 4.97371 12.1785 4.49319C12.1785 4.01267 12.5714 3.62177 13.0547 3.62177C13.5374 3.62177 13.9303 4.01267 13.9303 4.49319C13.9303 4.97371 13.5374 5.36461 13.0547 5.36461Z" fill="white"/><path fill-rule="evenodd" clip-rule="evenodd" d="M13.0666 0.870496C13.0666 1.03964 12.9291 1.17575 12.7596 1.17575C12.59 1.17575 12.4525 1.03964 12.4525 0.870496C12.4525 0.702268 12.59 0.564934 12.7596 0.564934C12.9291 0.564934 13.0666 0.702268 13.0666 0.870496Z" fill="white"/><path fill-rule="evenodd" clip-rule="evenodd" d="M12.7597 0.711747C12.672 0.711747 12.6003 0.783014 12.6003 0.870186C12.6003 0.957358 12.672 1.02863 12.7597 1.02863C12.8473 1.02863 12.9187 0.957358 12.9187 0.870186C12.9187 0.783014 12.8473 0.711747 12.7597 0.711747ZM12.7597 1.32256C12.5089 1.32256 12.3049 1.11947 12.3049 0.870186C12.3049 0.620904 12.5089 0.418114 12.7597 0.418114C13.0104 0.418114 13.2144 0.620904 13.2144 0.870186C13.2144 1.11947 13.0104 1.32256 12.7597 1.32256Z" fill="white"/><path fill-rule="evenodd" clip-rule="evenodd" d="M12.7596 0.756714C12.6969 0.756714 12.6452 0.807794 12.6452 0.870497C12.6452 0.932894 12.6969 0.983974 12.7596 0.983974C12.8227 0.983974 12.8741 0.932894 12.8741 0.870497C12.8741 0.807794 12.8227 0.756714 12.7596 0.756714ZM12.7596 1.59479C12.3581 1.59479 12.0311 1.26965 12.0311 0.870497C12.0311 0.47134 12.3581 0.146814 12.7596 0.146814C13.1614 0.146814 13.4879 0.47134 13.4879 0.870497C13.4879 1.26965 13.1614 1.59479 12.7596 1.59479Z" fill="white"/><path fill-rule="evenodd" clip-rule="evenodd" d="M12.7597 1.1311C12.6151 1.1311 12.4975 1.01395 12.4975 0.870194C12.4975 0.726436 12.6151 0.609594 12.7597 0.609594C12.904 0.609594 13.0218 0.726436 13.0218 0.870194C13.0218 1.01395 12.904 1.1311 12.7597 1.1311ZM12.7597 0.293939C12.4397 0.293939 12.1791 0.552397 12.1791 0.870194C12.1791 1.18891 12.4397 1.44798 12.7597 1.44798C13.0799 1.44798 13.3402 1.18891 13.3402 0.870194C13.3402 0.552397 13.0799 0.293939 12.7597 0.293939ZM12.7597 1.74161C12.2763 1.74161 11.8834 1.35102 11.8834 0.870194C11.8834 0.390287 12.2763 0 12.7597 0C13.2427 0 13.6356 0.390287 13.6356 0.870194C13.6356 1.35102 13.2427 1.74161 12.7597 1.74161Z" fill="white"/><path fill-rule="evenodd" clip-rule="evenodd" d="M2.27438 19.2204C2.27438 19.3896 2.13716 19.5257 1.96733 19.5257C1.79781 19.5257 1.66028 19.3896 1.66028 19.2204C1.66028 19.0519 1.79781 18.9158 1.96733 18.9158C2.13716 18.9158 2.27438 19.0519 2.27438 19.2204Z" fill="white"/><path fill-rule="evenodd" clip-rule="evenodd" d="M1.96731 19.0626C1.87962 19.0626 1.80794 19.1335 1.80794 19.2204C1.80794 19.3076 1.87962 19.3789 1.96731 19.3789C2.0553 19.3789 2.12668 19.3076 2.12668 19.2204C2.12668 19.1335 2.0553 19.0626 1.96731 19.0626ZM1.96731 19.6725C1.71656 19.6725 1.51227 19.4694 1.51227 19.2204C1.51227 18.9711 1.71656 18.7686 1.96731 18.7686C2.21806 18.7686 2.42235 18.9711 2.42235 19.2204C2.42235 19.4694 2.21806 19.6725 1.96731 19.6725Z" fill="white"/><path fill-rule="evenodd" clip-rule="evenodd" d="M1.96726 19.1076C1.9045 19.1076 1.85312 19.1577 1.85312 19.2204C1.85312 19.2834 1.9045 19.3339 1.96726 19.3339C2.03033 19.3339 2.0814 19.2834 2.0814 19.2204C2.0814 19.1577 2.03033 19.1076 1.96726 19.1076ZM1.96726 19.9447C1.56545 19.9447 1.23901 19.6202 1.23901 19.2204C1.23901 18.821 1.56545 18.4967 1.96726 18.4967C2.36877 18.4967 2.69551 18.821 2.69551 19.2204C2.69551 19.6202 2.36877 19.9447 1.96726 19.9447Z" fill="white"/><path fill-rule="evenodd" clip-rule="evenodd" d="M1.96724 19.481C1.82294 19.481 1.70541 19.3642 1.70541 19.2204C1.70541 19.077 1.82294 18.9604 1.96724 18.9604C2.11184 18.9604 2.22937 19.077 2.22937 19.2204C2.22937 19.3642 2.11184 19.481 1.96724 19.481ZM1.96724 18.6436C1.64726 18.6436 1.38698 18.9026 1.38698 19.2204C1.38698 19.5388 1.64726 19.7979 1.96724 19.7979C2.28752 19.7979 2.5478 19.5388 2.5478 19.2204C2.5478 18.9026 2.28752 18.6436 1.96724 18.6436ZM1.96724 20.0918C1.48451 20.0918 1.09131 19.7006 1.09131 19.2204C1.09131 18.7405 1.48451 18.3499 1.96724 18.3499C2.45027 18.3499 2.84316 18.7405 2.84316 19.2204C2.84316 19.7006 2.45027 20.0918 1.96724 20.0918Z" fill="white"/><path fill-rule="evenodd" clip-rule="evenodd" d="M7.025 17.6088L13.666 25.6397L20.3067 17.313L23.986 6.834L13.0546 4.76022L2.25002 6.81167L7.025 17.6088ZM13.6737 26.4732L6.55765 17.8523L1.50177 6.42138L13.0546 4.22648L13.1036 4.23596L24.6844 6.43331L20.7749 17.5696L20.7472 17.6039L13.6737 26.4732Z" fill="white"/><path fill-rule="evenodd" clip-rule="evenodd" d="M7.15212 17.5311L13.6642 25.406L20.1756 17.2411L23.7901 6.94625L13.0547 4.90948L2.4602 6.92117L7.15212 17.5311ZM13.6682 25.8736L6.88968 17.6681L2.03993 6.70186L13.0547 4.61034L13.0824 4.61554L24.1821 6.72144L20.4227 17.4045L13.6682 25.8736ZM6.68477 17.7749L13.6716 26.2395L20.6439 17.4972L24.4885 6.54587L13.0541 4.37604L1.71165 6.53088L6.68477 17.7749ZM13.6756 26.7074L6.42233 17.9116L1.29199 6.31157L13.0553 4.0766L13.1325 4.09189L24.8805 6.32075L20.89 17.6617L20.8623 17.6963L13.6756 26.7074Z" fill="white"/><path fill-rule="evenodd" clip-rule="evenodd" d="M15.1265 10.7931L15.0865 10.8776C14.9031 11.2666 14.7129 11.6609 14.5173 12.0594C14.3207 12.458 14.1259 12.8538 13.9309 13.2517L13.45 14.2687L13.3057 14.555C13.2195 14.384 13.1352 14.2121 13.0531 14.0399L12.6728 13.2499C12.4787 12.8538 12.2833 12.4592 12.0867 12.0634C11.8892 11.6722 11.695 11.2773 11.5015 10.8763L11.4615 10.7931H10.8533V16.3318H11.5163V12.383L13.0694 15.4934H13.5598L13.6001 15.4102C13.7423 15.1166 13.8847 14.8257 14.0256 14.5379L14.0395 14.5094C14.1853 14.2137 14.3364 13.9081 14.497 13.5909L14.5927 13.3915C14.6936 13.182 14.796 12.9691 14.8979 12.7516C14.948 12.6476 14.9985 12.5415 15.0498 12.4335V16.3318H15.7135V10.7931H15.1265Z" fill="white"/></svg>