<svg width="25" height="24" viewBox="0 0 25 24" fill="none" xmlns="http://www.w3.org/2000/svg">
<path d="M14.8645 10.4209C15.9036 9.67636 16.5909 8.46545 16.5909 7.09091C16.5909 4.83273 14.7582 3 12.5 3C10.2418 3 8.40909 4.83273 8.40909 7.09091C8.40909 8.46545 9.09636 9.67636 10.1355 10.4209C6.41273 10.8791 3.5 14.2664 3.5 18.3409V21H21.5V18.3409C21.5 14.2664 18.5873 10.8791 14.8645 10.4209ZM9.22727 7.09091C9.22727 5.28273 10.6918 3.81818 12.5 3.81818C14.3082 3.81818 15.7727 5.28273 15.7727 7.09091C15.7727 8.89909 14.3082 10.3636 12.5 10.3636C10.6918 10.3636 9.22727 8.89909 9.22727 7.09091ZM20.6818 20.1818H4.31818V18.3409C4.31818 14.3973 7.31273 11.1818 11.0027 11.1818H14.0055C17.6873 11.1818 20.69 14.3973 20.69 18.3409V20.1818H20.6818Z" fill="white"/>
</svg>
