<svg width="25" height="24" viewBox="0 0 25 24" fill="none" xmlns="http://www.w3.org/2000/svg">
<path d="M18.9394 5.17678L16.7929 3.03033L17.5 2.32323L20.8536 5.67678L17.5 9.03033L16.7929 8.32323L18.9394 6.17678H7.64648C5.98963 6.17678 4.64648 7.51993 4.64648 9.17678C4.64648 10.8336 5.98963 12.1768 7.64648 12.1768L16.6465 12.1768C18.8556 12.1768 20.6465 13.9676 20.6465 16.1768C20.6465 18.3859 18.8556 20.1768 16.6465 20.1768H10.1465V19.1768H16.6465C18.3033 19.1768 19.6465 17.8336 19.6465 16.1768C19.6465 14.5199 18.3033 13.1768 16.6465 13.1768L7.64648 13.1768C5.43734 13.1768 3.64648 11.3859 3.64648 9.17678C3.64648 6.96764 5.43735 5.17678 7.64648 5.17678H18.9394Z" fill="white"/>
<path d="M8.14648 19.6768C8.14648 18.5722 7.25105 17.6768 6.14648 17.6768C5.04191 17.6768 4.14648 18.5722 4.14648 19.6768C4.14648 20.7814 5.04191 21.6768 6.14648 21.6768C7.25105 21.6768 8.14648 20.7814 8.14648 19.6768Z" fill="white"/>
</svg>
