<svg width="24" height="24" viewBox="0 0 24 24" fill="none" xmlns="http://www.w3.org/2000/svg">
<path d="M21 3H3V4H21V3Z" fill="white"/>
<path d="M7 11.5H3V12.5H7V11.5Z" fill="white"/>
<path d="M16 20H3V21H16V20Z" fill="white"/>
<path fill-rule="evenodd" clip-rule="evenodd" d="M16.8335 14.3204L20.8121 18.3623L20.1843 19L16.2057 14.9581C15.4454 15.5868 14.4817 15.982 13.4207 15.982C10.9805 15.982 9 13.9701 9 11.491C9 9.01198 10.9805 7 13.4207 7C15.8609 7 17.8414 9.01198 17.8414 11.491C17.8414 12.5689 17.4524 13.5479 16.8335 14.3204ZM13.4295 7.8982C11.4756 7.8982 9.89297 9.50599 9.89297 11.491C9.89297 13.476 11.4756 15.0838 13.4295 15.0838C15.3835 15.0838 16.9661 13.476 16.9661 11.491C16.9661 9.50599 15.3835 7.8982 13.4295 7.8982Z" fill="white"/>
</svg>
