<svg width="25" height="24" viewBox="0 0 25 24" fill="none" xmlns="http://www.w3.org/2000/svg">
<path d="M17.2376 5.16002C18.1919 5.16002 19.0831 5.53716 19.7673 6.21431C21.1986 7.64574 21.1986 9.98574 19.7673 11.4172L12.7275 18.48L5.70574 11.4257C4.27438 9.99431 4.27438 7.65431 5.70574 6.22288C6.38091 5.54574 7.28113 5.16859 8.23537 5.16859C9.18961 5.16859 10.0808 5.54574 10.792 6.24859L12.1153 7.46574L12.7455 8.04002L13.3666 7.45716L14.717 6.20574C15.3922 5.52859 16.2924 5.15145 17.2466 5.15145M17.2466 4.29431C16.0943 4.29431 14.942 4.73145 14.0688 5.61431L12.7455 6.84002L11.4222 5.62288C10.5399 4.74002 9.39666 4.30288 8.24437 4.30288C7.09208 4.30288 5.9398 4.74002 5.06658 5.62288C3.31114 7.38859 3.31114 10.2429 5.06658 12.0086L12.7455 19.7143L20.4334 11.9914C22.1889 10.2257 22.1889 7.37145 20.4334 5.60574C19.5512 4.72288 18.4079 4.28574 17.2556 4.28574L17.2466 4.29431Z" fill="white"/>
</svg>
