<svg width="28" height="28" viewBox="0 0 28 28" fill="none" xmlns="http://www.w3.org/2000/svg">
<path d="M17.4999 10.5007C17.4999 12.4336 15.9329 14.0007 13.9999 14.0007C12.0669 14.0007 10.4999 12.4336 10.4999 10.5007C10.4999 8.56765 12.0669 7.00065 13.9999 7.00065C15.9329 7.00065 17.4999 8.56765 17.4999 10.5007Z" fill="white"/>
<path d="M13.9999 2.33398C9.48492 2.33398 5.83325 5.98565 5.83325 10.5007C5.83325 16.6257 13.9999 25.6673 13.9999 25.6673C13.9999 25.6673 22.1666 16.6257 22.1666 10.5007C22.1666 5.98565 18.5149 2.33398 13.9999 2.33398ZM13.9999 13.4173C12.3899 13.4173 11.0833 12.1107 11.0833 10.5007C11.0833 8.89065 12.3899 7.58398 13.9999 7.58398C15.6099 7.58398 16.9166 8.89065 16.9166 10.5007C16.9166 12.1107 15.6099 13.4173 13.9999 13.4173Z" fill="#F0002E"/>
</svg>
