<svg width="24" height="24" viewBox="0 0 24 24" fill="none" xmlns="http://www.w3.org/2000/svg">
<path d="M20.3801 14.0015C20.7791 13.4896 21 12.8625 21 12.2101C21 11.1749 20.4039 10.195 19.4444 9.6486C19.1974 9.50795 18.9161 9.43392 18.6297 9.43418H12.9345L13.077 6.60067C13.1103 5.91592 12.8609 5.26576 12.3764 4.77007C12.1386 4.52575 11.8517 4.33135 11.5335 4.19891C11.2153 4.06646 10.8725 3.99877 10.5262 4.00002C9.29125 4.00002 8.19875 4.80696 7.871 5.96203L5.83087 13.1323H2.76C2.33962 13.1323 2 13.462 2 13.87V22.2622C2 22.6703 2.33962 23 2.76 23H17.0409C17.2594 23 17.4731 22.9585 17.6702 22.8755C18.8007 22.4075 19.5299 21.3354 19.5299 20.1457C19.5299 19.8552 19.4871 19.5694 19.4016 19.2927C19.8006 18.7809 20.0215 18.1537 20.0215 17.5013C20.0215 17.2108 19.9788 16.9249 19.8932 16.6482C20.2922 16.1364 20.5131 15.5093 20.5131 14.8568C20.5084 14.5663 20.4656 14.2781 20.3801 14.0015ZM3.71 21.34V14.7923H5.63375V21.34H3.71ZM18.8245 13.2014L18.3044 13.6395L18.6345 14.2251C18.7433 14.418 18.7997 14.6346 18.7984 14.8545C18.7984 15.2349 18.6274 15.5969 18.3329 15.8459L17.8127 16.284L18.1429 16.8696C18.2516 17.0625 18.308 17.2791 18.3067 17.499C18.3067 17.8794 18.1357 18.2414 17.8412 18.4904L17.3211 18.9284L17.6512 19.514C17.76 19.7069 17.8164 19.9235 17.8151 20.1434C17.8151 20.6599 17.5016 21.1256 17.0171 21.3377H7.15375V14.7185L9.51687 6.407C9.57781 6.19397 9.70862 6.00603 9.88947 5.87165C10.0703 5.73727 10.2914 5.66378 10.5191 5.66231C10.6996 5.66231 10.8777 5.71304 11.0202 5.81679C11.2554 5.9874 11.3812 6.24562 11.367 6.51998L11.139 11.0942H18.606C19.0287 11.3455 19.29 11.7697 19.29 12.2101C19.29 12.5905 19.119 12.9501 18.8245 13.2014Z" fill="white" stroke="white" stroke-width="0.351562"/>
<mask id="mask0_2754_386" style="mask-type:luminance" maskUnits="userSpaceOnUse" x="13" y="1" width="9" height="8">
<path d="M16.264 2C15.2022 2 14.3413 2.86086 14.3413 3.92274C14.3413 5.84548 16.6136 7.59343 17.8372 8C19.0608 7.59343 21.3331 5.84548 21.3331 3.92274C21.3331 2.86086 20.4722 2 19.4104 2C18.7601 2 18.185 2.32285 17.8372 2.81699C17.6599 2.56448 17.4243 2.3584 17.1505 2.21619C16.8767 2.07398 16.5726 1.99983 16.264 2Z" fill="#F0002E" stroke="white" stroke-width="1.3" stroke-linecap="round" stroke-linejoin="round"/>
</mask>
<g mask="url(#mask0_2754_386)">
<path d="M13.6421 0.601562H22.0322V8.9917H13.6421V0.601562Z" fill="#F0002E"/>
</g>
<path d="M15.925 2C14.8619 2 14 2.86086 14 3.92274C14 5.84548 16.275 7.59343 17.5 8C18.725 7.59343 21 5.84548 21 3.92274C21 2.86086 20.1381 2 19.075 2C18.424 2 17.8482 2.32285 17.5 2.81699C17.3225 2.56448 17.0866 2.3584 16.8125 2.21619C16.5383 2.07398 16.2339 1.99983 15.925 2Z" stroke="white" stroke-width="1.3" stroke-linecap="round" stroke-linejoin="round"/>
</svg>
