<svg xmlns="http://www.w3.org/2000/svg" width="14" height="7.735" viewBox="0 0 14 7.735">
  <defs>
    <style>
      .cls-1 {
        fill: #767676;
      }
    </style>
  </defs>
  <path id="제외_1" data-name="제외 1" class="cls-1" d="M-2037-3276.266a8.193,8.193,0,0,1-4.947-1.934,13.258,13.258,0,0,1-2.048-1.934.027.027,0,0,1,.006-.008,13.591,13.591,0,0,1,2.047-1.926A8.533,8.533,0,0,1-2037-3284a8.19,8.19,0,0,1,4.947,1.934,13.235,13.235,0,0,1,2.048,1.934.027.027,0,0,1-.006.008,13.608,13.608,0,0,1-2.047,1.926A8.532,8.532,0,0,1-2037-3276.266Zm0-5.867a2,2,0,0,0-2,2,2,2,0,0,0,2,2,2,2,0,0,0,2-2A2,2,0,0,0-2037-3282.133Z" transform="translate(2044 3284)"/>
</svg>
